<svg width="128" height="128" viewBox="0 0 128 128" fill="none" xmlns="http://www.w3.org/2000/svg">
  <path d="M22 25C27 21 34 19 41 20C35 27 33 35 36 41C28 39 24 33 22 25Z" stroke="#D5DBE8" stroke-width="3" stroke-linecap="round" stroke-linejoin="round"/>
  <path d="M97 24C92 20 84 19 78 20C84 28 85 36 82 42C90 39 95 33 97 24Z" stroke="#D5DBE8" stroke-width="3" stroke-linecap="round" stroke-linejoin="round"/>
  <path d="M46 30C57 25 71 26 81 33C88 38 92 46 92 55C92 68 83 79 70 86C60 91 49 91 40 85C30 79 24 68 24 56C24 45 30 36 40 31" stroke="#D5DBE8" stroke-width="3.2" stroke-linecap="round" stroke-linejoin="round"/>
  <path d="M38 49C44 48 49 50 53 54" stroke="#D5DBE8" stroke-width="3" stroke-linecap="round"/>
  <path d="M57 58C61 58 65 56 67 53" stroke="#D5DBE8" stroke-width="3" stroke-linecap="round"/>
  <path d="M39 86C37 96 36 103 36 110" stroke="#D5DBE8" stroke-width="3" stroke-linecap="round"/>
  <path d="M50 89C49 97 50 106 52 113" stroke="#D5DBE8" stroke-width="3" stroke-linecap="round"/>
  <path d="M62 88C64 96 68 103 74 110" stroke="#D5DBE8" stroke-width="3" stroke-linecap="round"/>
  <path d="M74 83C80 90 87 95 95 98" stroke="#D5DBE8" stroke-width="3" stroke-linecap="round"/>
</svg>
